<svg width="50" height="51" viewBox="0 0 50 51" fill="none" xmlns="http://www.w3.org/2000/svg">
<g clip-path="url(#clip0_416_341)">
<path d="M25 50.7272C38.8071 50.7272 50 39.5343 50 25.7272C50 11.9201 38.8071 0.727173 25 0.727173C11.1929 0.727173 0 11.9201 0 25.7272C0 39.5343 11.1929 50.7272 25 50.7272Z" fill="#F0F0F0"/>
<path d="M50 25.7272C50 15.8157 44.2319 7.25164 35.8695 3.20789V48.2465C44.2319 44.2028 50 35.6387 50 25.7272V25.7272Z" fill="#D80027"/>
<path d="M0 25.7272C0 35.6387 5.76807 44.2028 14.1305 48.2466V3.20789C5.76807 7.25164 0 15.8157 0 25.7272Z" fill="#D80027"/>
<path d="M29.3478 28.9881L33.6956 26.8141L31.5218 25.7272V23.5533L27.1739 25.7272L29.3478 21.3794H27.1739L25 18.1185L22.8261 21.3794H20.6521L22.8261 25.7272L18.4782 23.5533V25.7272L16.3044 26.8141L20.6521 28.9881L19.5652 31.162H23.9131V34.4228H26.0869V31.162H30.4348L29.3478 28.9881Z" fill="#D80027"/>
</g>
<defs>
<clipPath id="clip0_416_341">
<rect width="50" height="50" fill="white" transform="translate(0 0.727173)"/>
</clipPath>
</defs>
</svg>
