<svg width="50" height="51" viewBox="0 0 50 51" fill="none" xmlns="http://www.w3.org/2000/svg">
<g clip-path="url(#clip0_416_341)">
<path d="M0 25.7272C0 28.7852 0.550098 31.7145 1.55498 34.4228L25 36.5967L48.445 34.4228C49.4499 31.7145 50 28.7852 50 25.7272C50 22.6692 49.4499 19.7399 48.445 17.0316L25 14.8577L1.55498 17.0316C0.550098 19.7399 0 22.6692 0 25.7272H0Z" fill="#FFDA44"/>
<path d="M48.445 17.0316C44.9127 7.51164 35.7491 0.727173 25 0.727173C14.2509 0.727173 5.08732 7.51164 1.55499 17.0316H48.445Z" fill="#D80027"/>
<path d="M1.55499 34.4227C5.08732 43.9427 14.2509 50.7271 25 50.7271C35.7491 50.7271 44.9127 43.9427 48.445 34.4227H1.55499Z" fill="#D80027"/>
</g>
<defs>
<clipPath id="clip0_416_341">
<rect width="50" height="50" fill="white" transform="translate(0 0.727173)"/>
</clipPath>
</defs>
</svg>
